<?xml version="1.0" encoding="UTF-8" standalone="no"?>
<!-- Created with Inkscape (http://www.inkscape.org/) -->

<svg
   xmlns:dc="http://purl.org/dc/elements/1.1/"
   xmlns:cc="http://creativecommons.org/ns#"
   xmlns:rdf="http://www.w3.org/1999/02/22-rdf-syntax-ns#"
   xmlns:svg="http://www.w3.org/2000/svg"
   xmlns="http://www.w3.org/2000/svg"
   xmlns:xlink="http://www.w3.org/1999/xlink"
   xmlns:sodipodi="http://sodipodi.sourceforge.net/DTD/sodipodi-0.dtd"
   xmlns:inkscape="http://www.inkscape.org/namespaces/inkscape"
   width="14.560296mm"
   height="14.560294mm"
   viewBox="0 0 14.560296 14.560294"
   version="1.1"
   id="svg8"
   inkscape:version="0.92.0 r15299"
   sodipodi:docname="delete-x.svg"
   inkscape:export-filename="C:\Users\thoma\OneDrive\codes\slurmUI\img_src\delete-x.png"
   inkscape:export-xdpi="139.5576"
   inkscape:export-ydpi="139.5576">
  <defs
     id="defs2">
    <linearGradient
       inkscape:collect="always"
       id="linearGradient4522">
      <stop
         style="stop-color:#999999;stop-opacity:1;"
         offset="0"
         id="stop4518" />
      <stop
         style="stop-color:#999999;stop-opacity:0;"
         offset="1"
         id="stop4520" />
    </linearGradient>
    <inkscape:path-effect
       effect="bspline"
       id="path-effect4487"
       is_visible="true"
       weight="33.333333"
       steps="2"
       helper_size="0"
       apply_no_weight="true"
       apply_with_weight="true"
       only_selected="false" />
    <radialGradient
       inkscape:collect="always"
       xlink:href="#linearGradient4522"
       id="radialGradient4524"
       cx="108.0067"
       cy="79.191208"
       fx="108.0067"
       fy="79.191208"
       r="6.7911825"
       gradientTransform="matrix(2.7583905,-0.01325124,0.01036905,2.1584232,-190.73908,-90.305705)"
       gradientUnits="userSpaceOnUse" />
    <filter
       inkscape:collect="always"
       style="color-interpolation-filters:sRGB"
       id="filter4560"
       x="-0.035999998"
       width="1.072"
       y="-0.036000002"
       height="1.072">
      <feGaussianBlur
         inkscape:collect="always"
         stdDeviation="0.20373546"
         id="feGaussianBlur4562" />
    </filter>
  </defs>
  <sodipodi:namedview
     id="base"
     pagecolor="#ffffff"
     bordercolor="#666666"
     borderopacity="1.0"
     inkscape:pageopacity="0.0"
     inkscape:pageshadow="2"
     inkscape:zoom="5.6"
     inkscape:cx="-7.7547387"
     inkscape:cy="-21.79765"
     inkscape:document-units="mm"
     inkscape:current-layer="layer1"
     showgrid="false"
     inkscape:window-width="2736"
     inkscape:window-height="1699"
     inkscape:window-x="-13"
     inkscape:window-y="-13"
     inkscape:window-maximized="1"
     fit-margin-top="0"
     fit-margin-left="0"
     fit-margin-right="0"
     fit-margin-bottom="0" />
  <metadata
     id="metadata5">
    <rdf:RDF>
      <cc:Work
         rdf:about="">
        <dc:format>image/svg+xml</dc:format>
        <dc:type
           rdf:resource="http://purl.org/dc/dcmitype/StillImage" />
        <dc:title />
      </cc:Work>
    </rdf:RDF>
  </metadata>
  <g
     inkscape:label="Layer 1"
     inkscape:groupmode="layer"
     id="layer1"
     transform="translate(-100.66339,-71.728209)">
    <path
       inkscape:connector-curvature="0"
       id="path4526"
       d="m 102.41545,72.217298 c -0.24154,0 -0.48309,0.09242 -0.66818,0.2775 l -0.31729,0.317294 c -0.37017,0.370167 -0.37017,0.966181 0,1.336352 l 4.86017,4.859652 -4.86017,4.860168 c -0.37017,0.370168 -0.37016,0.96619 0,1.336352 l 0.31729,0.317294 c 0.37017,0.370171 0.96619,0.370168 1.33636,0 l 4.86016,-4.860168 4.85966,4.860168 c 0.37017,0.370171 0.96618,0.370168 1.33635,0 l 0.31729,-0.317294 c 0.37017,-0.370168 0.37017,-0.966181 0,-1.336352 l -4.85965,-4.860168 4.85965,-4.859652 c 0.37017,-0.370168 0.37017,-0.966182 0,-1.336352 l -0.31729,-0.317294 c -0.37016,-0.370163 -0.96619,-0.370168 -1.33635,0 l -4.85966,4.859652 -4.86016,-4.859652 c -0.18509,-0.185084 -0.42664,-0.277503 -0.66818,-0.2775 z"
       style="opacity:1;fill:#999999;fill-opacity:1;stroke:none;stroke-width:1.05833328;stroke-miterlimit:4;stroke-dasharray:none;stroke-dashoffset:0;stroke-opacity:1;filter:url(#filter4560)" />
    <path
       style="opacity:1;fill:url(#radialGradient4524);fill-opacity:1;stroke:none;stroke-width:1.05833328;stroke-miterlimit:4;stroke-dasharray:none;stroke-dashoffset:0;stroke-opacity:1"
       d="m 102.41545,72.217298 c -0.24154,0 -0.48309,0.09242 -0.66818,0.2775 l -0.31729,0.317294 c -0.37017,0.370167 -0.37017,0.966181 0,1.336352 l 4.86017,4.859652 -4.86017,4.860168 c -0.37017,0.370168 -0.37016,0.96619 0,1.336352 l 0.31729,0.317294 c 0.37017,0.370171 0.96619,0.370168 1.33636,0 l 4.86016,-4.860168 4.85966,4.860168 c 0.37017,0.370171 0.96618,0.370168 1.33635,0 l 0.31729,-0.317294 c 0.37017,-0.370168 0.37017,-0.966181 0,-1.336352 l -4.85965,-4.860168 4.85965,-4.859652 c 0.37017,-0.370168 0.37017,-0.966182 0,-1.336352 l -0.31729,-0.317294 c -0.37016,-0.370163 -0.96619,-0.370168 -1.33635,0 l -4.85966,4.859652 -4.86016,-4.859652 c -0.18509,-0.185084 -0.42664,-0.277503 -0.66818,-0.2775 z"
       id="rect4505"
       inkscape:connector-curvature="0" />
  </g>
</svg>
